{
  "accessors": [
    {
      "bufferView": 1,
      "componentType": 5126,
      "count": 2228,
      "max": [
        49.995067596435547,
        89.593887329101562,
        49.995067596435547
      ],
      "min": [
        -49.995067596435547,
        -104.17053985595703,
        -49.995067596435547
      ],
      "type": "VEC3"
    },
    {
      "bufferView": 1,
      "byteOffset": 26736,
      "componentType": 5126,
      "count": 2228,
      "max": [
        1,
        1,
        1
      ],
      "min": [
        -1,
        -1,
        -1
      ],
      "type": "VEC3"
    },
    {
      "bufferView": 2,
      "componentType": 5126,
      "count": 2228,
      "max": [
        0,
        0,
        0,
        1
      ],
      "min": [
        0,
        0,
        0,
        1
      ],
      "type": "VEC4"
    },
    {
      "bufferView": 0,
      "componentType": 5125,
      "count": 5760,
      "max": [
        2227
      ],
      "min": [
        0
      ],
      "type": "SCALAR"
    },
    {
      "bufferView": 1,
      "byteOffset": 53472,
      "componentType": 5126,
      "count": 2228,
      "max": [
        49.995067596435547,
        89.593887329101562,
        49.995067596435547
      ],
      "min": [
        -49.995067596435547,
        -104.17053985595703,
        -49.995067596435547
      ],
      "type": "VEC3"
    },
    {
      "bufferView": 1,
      "byteOffset": 80208,
      "componentType": 5126,
      "count": 2228,
      "max": [
        1,
        1,
        1
      ],
      "min": [
        -1,
        -1,
        -1
      ],
      "type": "VEC3"
    },
    {
      "bufferView": 2,
      "byteOffset": 35648,
      "componentType": 5126,
      "count": 2228,
      "max": [
        1,
        0.9995456337928772,
        0.99969363212585449,
        1
      ],
      "min": [
        -0.99966681003570557,
        -0.99954551458358765,
        -0.99969363212585449,
        -1
      ],
      "type": "VEC4"
    },
    {
      "bufferView": 0,
      "byteOffset": 23040,
      "componentType": 5125,
      "count": 5760,
      "max": [
        2227
      ],
      "min": [
        0
      ],
      "type": "SCALAR"
    },
    {
      "bufferView": 3,
      "componentType": 5126,
      "count": 2,
      "max": [
        10
      ],
      "min": [
        0
      ],
      "type": "SCALAR"
    },
    {
      "bufferView": 4,
      "componentType": 5126,
      "count": 2,
      "max": [
        0,
        0,
        0
      ],
      "min": [
        0,
        0,
        0
      ],
      "type": "VEC3"
    },
    {
      "bufferView": 3,
      "byteOffset": 8,
      "componentType": 5126,
      "count": 586,
      "max": [
        10
      ],
      "min": [
        0
      ],
      "type": "SCALAR"
    },
    {
      "bufferView": 4,
      "byteOffset": 24,
      "componentType": 5126,
      "count": 586,
      "max": [
        0.99999868869781494,
        0.17030000686645508,
        0.99999868869781494
      ],
      "min": [
        0.99999856948852539,
        0.17028316855430603,
        0.99999856948852539
      ],
      "type": "VEC3"
    },
    {
      "bufferView": 3,
      "byteOffset": 2352,
      "componentType": 5126,
      "count": 600,
      "max": [
        10
      ],
      "min": [
        0
      ],
      "type": "SCALAR"
    },
    {
      "bufferView": 5,
      "componentType": 5126,
      "count": 600,
      "max": [
        8.3458778332786852e-17,
        0.99999624490737915,
        8.3458778332786852e-17,
        1
      ],
      "min": [
        -8.6595189135236817e-17,
        -0.85992354154586792,
        -8.6595189135236817e-17,
        -0.49289843440055847
      ],
      "type": "VEC4"
    },
    {
      "bufferView": 3,
      "byteOffset": 4752,
      "componentType": 5126,
      "count": 2,
      "max": [
        10
      ],
      "min": [
        0
      ],
      "type": "SCALAR"
    },
    {
      "bufferView": 4,
      "byteOffset": 7056,
      "componentType": 5126,
      "count": 2,
      "max": [
        0,
        0,
        0
      ],
      "min": [
        0,
        0,
        0
      ],
      "type": "VEC3"
    },
    {
      "bufferView": 3,
      "byteOffset": 4760,
      "componentType": 5126,
      "count": 588,
      "max": [
        10
      ],
      "min": [
        0
      ],
      "type": "SCALAR"
    },
    {
      "bufferView": 4,
      "byteOffset": 7080,
      "componentType": 5126,
      "count": 588,
      "max": [
        0.97335898876190186,
        0.059668213129043579,
        0.97334551811218262
      ],
      "min": [
        0.97333353757858276,
        0.037252932786941528,
        0.97333395481109619
      ],
      "type": "VEC3"
    },
    {
      "bufferView": 3,
      "byteOffset": 7112,
      "componentType": 5126,
      "count": 600,
      "max": [
        10
      ],
      "min": [
        0
      ],
      "type": "SCALAR"
    },
    {
      "bufferView": 5,
      "byteOffset": 9600,
      "componentType": 5126,
      "count": 600,
      "max": [
        0.0087076658383011818,
        0.99995124340057373,
        0.0049521406181156635,
        1
      ],
      "min": [
        -0.0060192286036908627,
        -0.86280304193496704,
        -0.0036254636943340302,
        -0.49979463219642639
      ],
      "type": "VEC4"
    }
  ],
  "animations": [
    {
      "channels": [
        {
          "sampler": 0,
          "target": {
            "node": 5,
            "path": "translation"
          }
        },
        {
          "sampler": 1,
          "target": {
            "node": 5,
            "path": "scale"
          }
        },
        {
          "sampler": 2,
          "target": {
            "node": 5,
            "path": "rotation"
          }
        },
        {
          "sampler": 3,
          "target": {
            "node": 8,
            "path": "translation"
          }
        },
        {
          "sampler": 4,
          "target": {
            "node": 8,
            "path": "scale"
          }
        },
        {
          "sampler": 5,
          "target": {
            "node": 8,
            "path": "rotation"
          }
        }
      ],
      "name": "Take 0",
      "samplers": [
        {
          "input": 8,
          "interpolation": "LINEAR",
          "output": 9
        },
        {
          "input": 10,
          "interpolation": "LINEAR",
          "output": 11
        },
        {
          "input": 12,
          "interpolation": "LINEAR",
          "output": 13
        },
        {
          "input": 14,
          "interpolation": "LINEAR",
          "output": 15
        },
        {
          "input": 16,
          "interpolation": "LINEAR",
          "output": 17
        },
        {
          "input": 18,
          "interpolation": "LINEAR",
          "output": 19
        }
      ]
    }
  ],
  "asset": {
    "generator": "Sketchfab (OSG glTF plugin)",
    "version": "2.0"
  },
  "bufferViews": [
    {
      "buffer": 0,
      "byteLength": 46080,
      "byteOffset": 0,
      "name": "floatBufferViews",
      "target": 34963
    },
    {
      "buffer": 0,
      "byteLength": 106944,
      "byteOffset": 46080,
      "byteStride": 12,
      "name": "floatBufferViews",
      "target": 34962
    },
    {
      "buffer": 0,
      "byteLength": 71296,
      "byteOffset": 153024,
      "byteStride": 16,
      "name": "floatBufferViews",
      "target": 34962
    },
    {
      "buffer": 0,
      "byteLength": 9512,
      "byteOffset": 224320,
      "name": "floatBufferViews"
    },
    {
      "buffer": 0,
      "byteLength": 14136,
      "byteOffset": 233832,
      "byteStride": 12,
      "name": "floatBufferViews"
    },
    {
      "buffer": 0,
      "byteLength": 19200,
      "byteOffset": 247968,
      "byteStride": 16,
      "name": "floatBufferViews"
    }
  ],
  "buffers": [
    {
      "byteLength": 267168,
      "uri": "scene.bin"
    }
  ],
  "extensionsRequired": [
    "KHR_materials_pbrSpecularGlossiness"
  ],
  "extensionsUsed": [
    "KHR_materials_pbrSpecularGlossiness"
  ],
  "materials": [
    {
      "doubleSided": true,
      "extensions": {
        "KHR_materials_pbrSpecularGlossiness": {
          "diffuseFactor": [
            0,
            0,
            0,
            1
          ],
          "glossinessFactor": 0.59999999999999998,
          "specularFactor": [
            0.13,
            0.13,
            0.13
          ]
        }
      },
      "name": "Silver"
    },
    {
      "doubleSided": true,
      "emissiveFactor": [
        0.25097999999999998,
        0.50196099999999999,
        0
      ],
      "extensions": {
        "KHR_materials_pbrSpecularGlossiness": {
          "diffuseFactor": [
            0.69999999999999996,
            0.69999999999999996,
            0.69999999999999996,
            1
          ],
          "glossinessFactor": 0.40000000000000002,
          "specularFactor": [
            0,
            0,
            0
          ]
        }
      },
      "name": "Material"
    }
  ],
  "meshes": [
    {
      "name": "Cylinder_Silver_0",
      "primitives": [
        {
          "attributes": {
            "NORMAL": 1,
            "POSITION": 0,
            "TANGENT": 2
          },
          "indices": 3,
          "material": 0,
          "mode": 4
        }
      ]
    },
    {
      "name": "Cylinder.1_Material_0",
      "primitives": [
        {
          "attributes": {
            "NORMAL": 5,
            "POSITION": 4,
            "TANGENT": 6
          },
          "indices": 7,
          "material": 1,
          "mode": 4
        }
      ]
    }
  ],
  "nodes": [
    {
      "children": [
        1
      ],
      "name": "RootNode (gltf orientation matrix)",
      "rotation": [
        -0.70710678118654746,
        -0,
        -0,
        0.70710678118654757
      ]
    },
    {
      "children": [
        2
      ],
      "name": "RootNode (model correction matrix)"
    },
    {
      "children": [
        3
      ],
      "matrix": [
        1,
        0,
        0,
        0,
        0,
        0,
        1,
        0,
        0,
        -1,
        0,
        0,
        0,
        0,
        0,
        1
      ],
      "name": "8a420fb32bc54ad0b790167575a7d1c1.fbx"
    },
    {
      "children": [
        4
      ],
      "name": ""
    },
    {
      "children": [
        5,
        8
      ],
      "name": "RootNode"
    },
    {
      "children": [
        6
      ],
      "name": "Cylinder",
      "rotation": [
        0,
        -0.038985986262559891,
        0,
        0.99923974275588989
      ],
      "scale": [
        0.99999862909317017,
        0.17028340697288513,
        0.99999862909317017
      ]
    },
    {
      "children": [
        7
      ],
      "name": "Geode"
    },
    {
      "mesh": 0,
      "name": "Cylinder_Silver_0"
    },
    {
      "children": [
        9
      ],
      "name": "Cylinder.1",
      "rotation": [
        -0.00053286994807422161,
        0.82766115665435791,
        -0.00036124399048276246,
        0.56122773885726929
      ],
      "scale": [
        0.97333353757858276,
        0.059661880135536194,
        0.97333401441574097
      ]
    },
    {
      "children": [
        10
      ],
      "name": "Geode"
    },
    {
      "mesh": 1,
      "name": "Cylinder.1_Material_0"
    }
  ],
  "scene": 0,
  "scenes": [
    {
      "name": "OSG_Scene",
      "nodes": [
        0
      ]
    }
  ]
}

